# xmcd CD database file
#
# Track frame offsets:
#	150
#	7602
#	18085
#	26867
#	35540
#	42320
#	54472
#	65555
#	77797
#	88002
#	93252
#	103910
#	115055
#	126115
#	136807
#	146255
#	157935
#	170260
#	179527
#	188035
#	195217
#	210787
#
# Disc length: 2971 seconds
#
# Revision: 2
# Processed by: cddbd v1.4b41PL1 Copyright (c) Steve Scherf et al.
# Submitted via: Feurio! 1.52 - http://www.feurio.com
#
DISCID=0f0b9916
DTITLE=Gospelchor Etelsen - Git on board
DYEAR=1900
DGENRE=
TTITLE0=Git on board
TTITLE1=Amazing Grace
TTITLE2=I'm just a poor wayfaaring stranger
TTITLE3=Look away
TTITLE4=King of Kings
TTITLE5=Were you there
TTITLE6=O when the saints
TTITLE7=Wade in the water
TTITLE8=Go down, Moses
TTITLE9=Rock my soul 
TTITLE10=Sometimes I feel like a motherless child 
TTITLE11=Gimme dat 
TTITLE12=Swing low 
TTITLE13=Poor man Lazrus 
TTITLE14=Elijah rock 
TTITLE15=O freedom 
TTITLE16=We shall overcome 
TTITLE17=Nobody knows 
TTITLE18=Come and go 
TTITLE19=It's me, o Lord 
TTITLE20=O happy day 
TTITLE21=Amen
EXTD=
EXTT0=
EXTT1=
EXTT2=
EXTT3=
EXTT4=
EXTT5=
EXTT6=
EXTT7=
EXTT8=
EXTT9=
EXTT10=
EXTT11=
EXTT12=
EXTT13=
EXTT14=
EXTT15=
EXTT16=
EXTT17=
EXTT18=
EXTT19=
EXTT20=
EXTT21=
PLAYORDER=
